<svg width="263" height="61" viewBox="0 0 263 61" fill="none" xmlns="http://www.w3.org/2000/svg">
<rect x="3" y="3" width="257" height="55" fill="#2B1F1F"/>
<path d="M117.566 24.174C118.382 23.514 118.952 23.184 119.276 23.184C119.612 23.184 120.14 23.502 120.86 24.138C121.592 24.762 122.048 25.206 122.228 25.47C122.408 25.722 122.498 26.142 122.498 26.73C122.498 27.318 122.408 27.762 122.228 28.062C122.048 28.35 121.718 28.722 121.238 29.178C121.994 29.802 122.528 30.324 122.84 30.744C122.972 30.96 123.038 31.368 123.038 31.968C123.038 32.556 122.972 32.94 122.84 33.12C122.624 33.588 122.102 34.188 121.274 34.92C120.446 35.64 119.792 36 119.312 36H115.586V28.296C115.586 27.324 115.514 26.64 115.37 26.244C115.238 25.848 114.95 25.38 114.506 24.84L116.882 23.184C117.17 23.424 117.398 23.754 117.566 24.174ZM118.07 30.528V33.822H119.312C119.468 33.822 119.66 33.702 119.888 33.462C120.116 33.21 120.278 32.994 120.374 32.814C120.482 32.622 120.536 32.238 120.536 31.662C120.536 31.266 120.236 30.888 119.636 30.528H118.07ZM118.07 27.252V28.53H118.988C119.12 28.53 119.282 28.416 119.474 28.188C119.678 27.948 119.816 27.738 119.888 27.558C119.96 27.378 119.996 27.162 119.996 26.91C119.996 26.658 119.876 26.376 119.636 26.064C119.396 25.74 119.174 25.578 118.97 25.578C118.766 25.578 118.448 25.656 118.016 25.812C118.052 26.28 118.07 26.76 118.07 27.252ZM131.321 26.298V33.678C131.393 34.098 131.675 34.47 132.167 34.794L130.547 36.18C130.391 36.072 130.199 35.88 129.971 35.604C129.743 35.328 129.551 35.046 129.395 34.758C128.399 35.73 127.703 36.216 127.307 36.216C127.019 36.216 126.551 35.898 125.903 35.262C125.267 34.626 124.871 34.11 124.715 33.714C124.559 33.318 124.481 32.466 124.481 31.158C124.481 29.838 124.559 28.98 124.715 28.584C124.871 28.188 125.267 27.672 125.903 27.036C126.551 26.4 127.019 26.082 127.307 26.082C127.727 26.082 128.405 26.514 129.341 27.378L129.557 26.298H131.321ZM128.819 29.052C128.735 28.896 128.561 28.74 128.297 28.584C128.045 28.416 127.853 28.332 127.721 28.332C127.589 28.332 127.445 28.41 127.289 28.566C127.145 28.722 127.049 28.866 127.001 28.998C126.845 29.214 126.767 29.934 126.767 31.158C126.767 32.37 126.845 33.084 127.001 33.3C127.049 33.42 127.145 33.564 127.289 33.732C127.445 33.888 127.589 33.966 127.721 33.966C127.853 33.966 128.045 33.888 128.297 33.732C128.561 33.564 128.729 33.414 128.801 33.282C128.885 33.15 128.933 32.448 128.945 31.176C128.945 29.904 128.903 29.196 128.819 29.052ZM133.35 34.02C133.098 33.624 132.972 32.67 132.972 31.158C132.972 29.646 133.098 28.686 133.35 28.278C133.53 27.978 133.974 27.54 134.682 26.964C135.39 26.376 135.936 26.082 136.32 26.082C136.716 26.082 137.244 26.316 137.904 26.784C138.576 27.24 139.08 27.762 139.416 28.35L137.562 29.628C137.406 29.34 137.19 29.022 136.914 28.674C136.65 28.326 136.452 28.152 136.32 28.152C136.08 28.152 135.804 28.404 135.492 28.908C135.336 29.22 135.258 29.97 135.258 31.158C135.258 32.334 135.336 33.078 135.492 33.39C135.588 33.546 135.714 33.714 135.87 33.894C136.026 34.062 136.182 34.146 136.338 34.146C136.494 34.146 136.698 34.008 136.95 33.732C137.202 33.456 137.406 33.102 137.562 32.67L139.416 33.966C139.092 34.566 138.594 35.094 137.922 35.55C137.262 35.994 136.734 36.216 136.338 36.216C135.942 36.216 135.39 35.928 134.682 35.352C133.974 34.764 133.53 34.32 133.35 34.02ZM143.167 36H140.791V26.172C140.791 25.56 140.719 25.092 140.575 24.768C140.431 24.444 140.203 24.15 139.891 23.886L141.871 22.5C142.735 23.184 143.167 24.15 143.167 25.398V27.45C144.103 26.538 144.727 26.082 145.039 26.082C145.351 26.082 145.903 26.424 146.695 27.108C147.487 27.792 147.895 28.326 147.919 28.71C147.919 28.986 147.727 29.454 147.343 30.114C146.971 30.774 146.611 31.278 146.263 31.626C147.139 32.706 147.697 33.708 147.937 34.632L145.669 36.216C145.393 35.244 145.105 34.44 144.805 33.804C144.505 33.156 144.085 32.55 143.545 31.986V31.356C143.917 31.092 144.313 30.708 144.733 30.204C145.153 29.688 145.393 29.292 145.453 29.016C145.117 28.56 144.829 28.332 144.589 28.332C144.457 28.332 144.235 28.464 143.923 28.728C143.623 28.98 143.371 29.22 143.167 29.448V36Z" fill="white"/>
<rect x="251" y="49" width="12" height="12" fill="#0F0F0F"/>
<rect x="239" y="49" width="12" height="12" fill="#0F0F0F"/>
<rect x="251" y="37" width="12" height="12" fill="#0F0F0F"/>
<rect y="49" width="12" height="12" fill="#0F0F0F"/>
<rect x="12" y="49" width="12" height="12" fill="#0F0F0F"/>
<rect y="37" width="12" height="12" fill="#0F0F0F"/>
<rect x="251" width="12" height="12" fill="#0F0F0F"/>
<rect x="239" width="12" height="12" fill="#0F0F0F"/>
<rect x="251" y="12" width="12" height="12" fill="#0F0F0F"/>
<rect width="12" height="12" fill="#0F0F0F"/>
<rect x="12" width="12" height="12" fill="#0F0F0F"/>
<rect y="12" width="12" height="12" fill="#0F0F0F"/>
<rect x="3" y="3" width="257" height="55" stroke="#0F0F0F" stroke-width="6"/>
</svg>
