<svg width="263" height="61" viewBox="0 0 263 61" fill="none" xmlns="http://www.w3.org/2000/svg">
<rect x="3" y="3" width="257" height="55" fill="#DA8B14"/>
<path d="M115.254 30.924C115.386 31.14 115.452 31.572 115.452 32.22C115.452 32.856 115.32 33.396 115.056 33.84C114.816 34.188 114.306 34.674 113.526 35.298C112.746 35.91 112.17 36.216 111.798 36.216C111.138 36.216 110.382 35.874 109.53 35.19C108.678 34.494 108.138 33.732 107.91 32.904L109.908 31.536C110.1 32.1 110.406 32.616 110.826 33.084C111.246 33.552 111.54 33.786 111.708 33.786C111.888 33.786 112.074 33.732 112.266 33.624C112.47 33.504 112.626 33.384 112.734 33.264C112.89 33.072 112.968 32.772 112.968 32.364C112.968 31.956 112.872 31.704 112.68 31.608C112.44 31.404 111.972 31.134 111.276 30.798C110.592 30.462 109.956 30.102 109.368 29.718C108.78 29.322 108.402 28.938 108.234 28.566C108.078 28.194 108 27.714 108 27.126C108 26.526 108.132 26.004 108.396 25.56C108.636 25.212 109.146 24.732 109.926 24.12C110.706 23.496 111.282 23.184 111.654 23.184C112.314 23.184 113.07 23.532 113.922 24.228C114.774 24.912 115.314 25.668 115.542 26.496L113.544 27.882C113.352 27.318 113.046 26.802 112.626 26.334C112.206 25.854 111.906 25.614 111.726 25.614C111.558 25.614 111.372 25.668 111.168 25.776C110.964 25.884 110.796 26.022 110.664 26.19C110.544 26.346 110.484 26.622 110.484 27.018C110.484 27.402 110.604 27.66 110.844 27.792C111.036 27.96 111.474 28.224 112.158 28.584C113.91 29.544 114.942 30.324 115.254 30.924ZM116.619 26.298H118.995V32.994C118.995 33.198 119.091 33.414 119.283 33.642C119.475 33.858 119.655 33.966 119.823 33.966C119.991 33.966 120.339 33.72 120.867 33.228V26.298H123.243V36H121.407L121.191 34.938C120.291 35.79 119.661 36.216 119.301 36.216C118.941 36.216 118.401 35.886 117.681 35.226C116.973 34.554 116.619 33.894 116.619 33.246V26.298ZM125.401 36V26.172C125.401 25.56 125.329 25.092 125.185 24.768C125.041 24.444 124.813 24.15 124.501 23.886L126.481 22.5C127.345 23.184 127.777 24.15 127.777 25.398V27.036C128.497 26.4 129.013 26.082 129.325 26.082C129.649 26.082 130.135 26.406 130.783 27.054C131.443 27.69 131.821 28.158 131.917 28.458C132.049 28.758 132.115 29.658 132.115 31.158C132.115 32.646 132.049 33.54 131.917 33.84C131.821 34.14 131.443 34.614 130.783 35.262C130.135 35.898 129.667 36.216 129.379 36.216C128.959 36.216 128.287 35.778 127.363 34.902L127.165 36H125.401ZM127.867 33.264C127.951 33.408 128.119 33.564 128.371 33.732C128.635 33.888 128.833 33.966 128.965 33.966C129.097 33.966 129.235 33.888 129.379 33.732C129.535 33.576 129.649 33.414 129.721 33.246C129.793 33.078 129.829 32.382 129.829 31.158C129.829 29.922 129.793 29.226 129.721 29.07C129.649 28.902 129.535 28.74 129.379 28.584C129.235 28.416 129.097 28.332 128.965 28.332C128.845 28.332 128.653 28.416 128.389 28.584C128.137 28.74 127.969 28.878 127.885 28.998C127.789 29.202 127.741 29.928 127.741 31.176C127.741 32.412 127.783 33.108 127.867 33.264ZM140.175 36H137.799V29.304C137.799 29.1 137.691 28.89 137.475 28.674C137.259 28.446 137.073 28.332 136.917 28.332C136.773 28.332 136.533 28.476 136.197 28.764V36H133.821V29.79C133.821 29.178 133.749 28.704 133.605 28.368C133.461 28.032 133.233 27.738 132.921 27.486L134.901 26.1C135.297 26.436 135.591 26.778 135.783 27.126C136.563 26.43 137.103 26.082 137.403 26.082C137.583 26.082 137.877 26.214 138.285 26.478C138.693 26.742 139.065 27.06 139.401 27.432C140.349 26.532 141.003 26.082 141.363 26.082C141.735 26.082 142.287 26.418 143.019 27.09C143.763 27.75 144.135 28.404 144.135 29.052V32.526C144.135 33.138 144.207 33.612 144.351 33.948C144.495 34.284 144.723 34.578 145.035 34.83L143.055 36.216C142.191 35.532 141.759 34.56 141.759 33.3V29.304C141.759 29.1 141.651 28.89 141.435 28.674C141.219 28.446 141.039 28.332 140.895 28.332C140.763 28.332 140.511 28.482 140.139 28.782C140.163 28.902 140.175 28.992 140.175 29.052V36ZM146.028 26.298H148.404V32.526C148.404 33.138 148.476 33.612 148.62 33.948C148.764 34.284 148.992 34.578 149.304 34.83L147.324 36.216C146.46 35.532 146.028 34.56 146.028 33.3V26.298ZM147.252 22.536C147.384 22.536 147.678 22.734 148.134 23.13C148.59 23.514 148.818 23.778 148.818 23.922C148.818 24.054 148.584 24.318 148.116 24.714C147.66 25.11 147.366 25.308 147.234 25.308C147.114 25.308 146.826 25.116 146.37 24.732C145.914 24.336 145.686 24.072 145.686 23.94C145.686 23.796 145.914 23.526 146.37 23.13C146.838 22.734 147.132 22.536 147.252 22.536ZM152.844 28.188V32.166C152.844 32.73 153.036 33.246 153.42 33.714C153.804 34.182 154.332 34.554 155.004 34.83L153.024 36.216C152.304 35.88 151.698 35.418 151.206 34.83C150.714 34.23 150.468 33.6 150.468 32.94V28.188H149.568V26.838L150.468 26.622C150.444 26.034 150.372 25.572 150.252 25.236C150.132 24.888 149.904 24.552 149.568 24.228L151.548 22.842C152.412 23.526 152.844 24.498 152.844 25.758V26.298H154.86V28.188H152.844Z" fill="#0F0F0F"/>
<path fill-rule="evenodd" clip-rule="evenodd" d="M239 0H251H263V12V24H251V12H239V0Z" fill="#31251E"/>
<path fill-rule="evenodd" clip-rule="evenodd" d="M263 37H251V49H239V61H251H263V49V37Z" fill="#31251E"/>
<path fill-rule="evenodd" clip-rule="evenodd" d="M0 0H12H24V12H12V24H0V12V0Z" fill="#31251E"/>
<path fill-rule="evenodd" clip-rule="evenodd" d="M12 37H0V49V61H12H24V49H12V37Z" fill="#31251E"/>
<rect x="3" y="3" width="257" height="55" stroke="#31251E" stroke-width="6"/>
</svg>
