<svg width="263" height="61" viewBox="0 0 263 61" fill="none" xmlns="http://www.w3.org/2000/svg">
<rect x="3" y="3" width="257" height="55" fill="#DA8B14"/>
<path d="M58.9159 30.924C59.0479 31.14 59.1139 31.572 59.1139 32.22C59.1139 32.856 58.9819 33.396 58.7179 33.84C58.4779 34.188 57.9679 34.674 57.1879 35.298C56.4079 35.91 55.8319 36.216 55.4599 36.216C54.7999 36.216 54.0439 35.874 53.1919 35.19C52.3399 34.494 51.7999 33.732 51.5719 32.904L53.5699 31.536C53.7619 32.1 54.0679 32.616 54.4879 33.084C54.9079 33.552 55.2019 33.786 55.3699 33.786C55.5499 33.786 55.7359 33.732 55.9279 33.624C56.1319 33.504 56.2879 33.384 56.3959 33.264C56.5519 33.072 56.6299 32.772 56.6299 32.364C56.6299 31.956 56.5339 31.704 56.3419 31.608C56.1019 31.404 55.6339 31.134 54.9379 30.798C54.2539 30.462 53.6179 30.102 53.0299 29.718C52.4419 29.322 52.0639 28.938 51.8959 28.566C51.7399 28.194 51.6619 27.714 51.6619 27.126C51.6619 26.526 51.7939 26.004 52.0579 25.56C52.2979 25.212 52.8079 24.732 53.5879 24.12C54.3679 23.496 54.9439 23.184 55.3159 23.184C55.9759 23.184 56.7319 23.532 57.5839 24.228C58.4359 24.912 58.9759 25.668 59.2039 26.496L57.2059 27.882C57.0139 27.318 56.7079 26.802 56.2879 26.334C55.8679 25.854 55.5679 25.614 55.3879 25.614C55.2199 25.614 55.0339 25.668 54.8299 25.776C54.6259 25.884 54.4579 26.022 54.3259 26.19C54.2059 26.346 54.1459 26.622 54.1459 27.018C54.1459 27.402 54.2659 27.66 54.5059 27.792C54.6979 27.96 55.1359 28.224 55.8199 28.584C57.5719 29.544 58.6039 30.324 58.9159 30.924ZM60.2815 26.298H62.6575V32.994C62.6575 33.198 62.7535 33.414 62.9455 33.642C63.1375 33.858 63.3175 33.966 63.4855 33.966C63.6535 33.966 64.0015 33.72 64.5295 33.228V26.298H66.9055V36H65.0695L64.8535 34.938C63.9535 35.79 63.3235 36.216 62.9635 36.216C62.6035 36.216 62.0635 35.886 61.3435 35.226C60.6355 34.554 60.2815 33.894 60.2815 33.246V26.298ZM69.0636 36V26.172C69.0636 25.56 68.9916 25.092 68.8476 24.768C68.7036 24.444 68.4756 24.15 68.1636 23.886L70.1436 22.5C71.0076 23.184 71.4396 24.15 71.4396 25.398V27.036C72.1596 26.4 72.6756 26.082 72.9876 26.082C73.3116 26.082 73.7976 26.406 74.4456 27.054C75.1056 27.69 75.4836 28.158 75.5796 28.458C75.7116 28.758 75.7776 29.658 75.7776 31.158C75.7776 32.646 75.7116 33.54 75.5796 33.84C75.4836 34.14 75.1056 34.614 74.4456 35.262C73.7976 35.898 73.3296 36.216 73.0416 36.216C72.6216 36.216 71.9496 35.778 71.0256 34.902L70.8276 36H69.0636ZM71.5296 33.264C71.6136 33.408 71.7816 33.564 72.0336 33.732C72.2976 33.888 72.4956 33.966 72.6276 33.966C72.7596 33.966 72.8976 33.888 73.0416 33.732C73.1976 33.576 73.3116 33.414 73.3836 33.246C73.4556 33.078 73.4916 32.382 73.4916 31.158C73.4916 29.922 73.4556 29.226 73.3836 29.07C73.3116 28.902 73.1976 28.74 73.0416 28.584C72.8976 28.416 72.7596 28.332 72.6276 28.332C72.5076 28.332 72.3156 28.416 72.0516 28.584C71.7996 28.74 71.6316 28.878 71.5476 28.998C71.4516 29.202 71.4036 29.928 71.4036 31.176C71.4036 32.412 71.4456 33.108 71.5296 33.264ZM83.8375 36H81.4615V29.304C81.4615 29.1 81.3535 28.89 81.1375 28.674C80.9215 28.446 80.7355 28.332 80.5795 28.332C80.4355 28.332 80.1955 28.476 79.8595 28.764V36H77.4835V29.79C77.4835 29.178 77.4115 28.704 77.2675 28.368C77.1235 28.032 76.8955 27.738 76.5835 27.486L78.5635 26.1C78.9595 26.436 79.2535 26.778 79.4455 27.126C80.2255 26.43 80.7655 26.082 81.0655 26.082C81.2455 26.082 81.5395 26.214 81.9475 26.478C82.3555 26.742 82.7275 27.06 83.0635 27.432C84.0115 26.532 84.6655 26.082 85.0255 26.082C85.3975 26.082 85.9495 26.418 86.6815 27.09C87.4255 27.75 87.7975 28.404 87.7975 29.052V32.526C87.7975 33.138 87.8695 33.612 88.0135 33.948C88.1575 34.284 88.3855 34.578 88.6975 34.83L86.7175 36.216C85.8535 35.532 85.4215 34.56 85.4215 33.3V29.304C85.4215 29.1 85.3135 28.89 85.0975 28.674C84.8815 28.446 84.7015 28.332 84.5575 28.332C84.4255 28.332 84.1735 28.482 83.8015 28.782C83.8255 28.902 83.8375 28.992 83.8375 29.052V36ZM89.6897 26.298H92.0657V32.526C92.0657 33.138 92.1377 33.612 92.2817 33.948C92.4257 34.284 92.6537 34.578 92.9657 34.83L90.9857 36.216C90.1217 35.532 89.6897 34.56 89.6897 33.3V26.298ZM90.9137 22.536C91.0457 22.536 91.3397 22.734 91.7957 23.13C92.2517 23.514 92.4797 23.778 92.4797 23.922C92.4797 24.054 92.2457 24.318 91.7777 24.714C91.3217 25.11 91.0277 25.308 90.8957 25.308C90.7757 25.308 90.4877 25.116 90.0317 24.732C89.5757 24.336 89.3477 24.072 89.3477 23.94C89.3477 23.796 89.5757 23.526 90.0317 23.13C90.4997 22.734 90.7937 22.536 90.9137 22.536ZM96.506 28.188V32.166C96.506 32.73 96.698 33.246 97.082 33.714C97.466 34.182 97.994 34.554 98.666 34.83L96.686 36.216C95.966 35.88 95.36 35.418 94.868 34.83C94.376 34.23 94.13 33.6 94.13 32.94V28.188H93.23V26.838L94.13 26.622C94.106 26.034 94.034 25.572 93.914 25.236C93.794 24.888 93.566 24.552 93.23 24.228L95.21 22.842C96.074 23.526 96.506 24.498 96.506 25.758V26.298H98.522V28.188H96.506ZM110.992 26.298V33.678C111.064 34.098 111.346 34.47 111.838 34.794L110.218 36.18C110.062 36.072 109.87 35.88 109.642 35.604C109.414 35.328 109.222 35.046 109.066 34.758C108.07 35.73 107.374 36.216 106.978 36.216C106.69 36.216 106.222 35.898 105.574 35.262C104.938 34.626 104.542 34.11 104.386 33.714C104.23 33.318 104.152 32.466 104.152 31.158C104.152 29.838 104.23 28.98 104.386 28.584C104.542 28.188 104.938 27.672 105.574 27.036C106.222 26.4 106.69 26.082 106.978 26.082C107.398 26.082 108.076 26.514 109.012 27.378L109.228 26.298H110.992ZM108.49 29.052C108.406 28.896 108.232 28.74 107.968 28.584C107.716 28.416 107.524 28.332 107.392 28.332C107.26 28.332 107.116 28.41 106.96 28.566C106.816 28.722 106.72 28.866 106.672 28.998C106.516 29.214 106.438 29.934 106.438 31.158C106.438 32.37 106.516 33.084 106.672 33.3C106.72 33.42 106.816 33.564 106.96 33.732C107.116 33.888 107.26 33.966 107.392 33.966C107.524 33.966 107.716 33.888 107.968 33.732C108.232 33.564 108.4 33.414 108.472 33.282C108.556 33.15 108.604 32.448 108.616 31.176C108.616 29.904 108.574 29.196 108.49 29.052ZM115.649 36H113.273V29.79C113.273 29.178 113.201 28.704 113.057 28.368C112.913 28.032 112.685 27.738 112.373 27.486L114.353 26.1C114.797 26.46 115.127 26.874 115.343 27.342C116.231 26.502 116.855 26.082 117.215 26.082C117.587 26.082 118.139 26.418 118.871 27.09C119.615 27.75 119.987 28.404 119.987 29.052V32.526C119.987 33.138 120.059 33.612 120.203 33.948C120.347 34.284 120.575 34.578 120.887 34.83L118.907 36.216C118.043 35.532 117.611 34.56 117.611 33.3V29.304C117.611 29.1 117.503 28.89 117.287 28.674C117.071 28.446 116.867 28.332 116.675 28.332C116.495 28.332 116.153 28.584 115.649 29.088V36ZM124.611 33.876C124.803 34.056 124.953 34.146 125.061 34.146C125.169 34.146 125.313 34.056 125.493 33.876C125.685 33.696 125.823 33.534 125.907 33.39C126.063 33.126 126.141 32.382 126.141 31.158C126.141 29.934 126.063 29.184 125.907 28.908C125.823 28.764 125.685 28.602 125.493 28.422C125.313 28.242 125.169 28.152 125.061 28.152C124.953 28.152 124.803 28.242 124.611 28.422C124.431 28.602 124.299 28.764 124.215 28.908C124.059 29.172 123.981 29.916 123.981 31.14C123.981 32.364 124.059 33.114 124.215 33.39C124.299 33.534 124.431 33.696 124.611 33.876ZM126.681 35.334C125.949 35.922 125.409 36.216 125.061 36.216C124.713 36.216 124.167 35.922 123.423 35.334C122.691 34.746 122.241 34.308 122.073 34.02C121.821 33.576 121.695 32.616 121.695 31.14C121.695 29.664 121.821 28.71 122.073 28.278C122.241 27.99 122.691 27.552 123.423 26.964C124.167 26.376 124.713 26.082 125.061 26.082C125.409 26.082 125.949 26.376 126.681 26.964C127.425 27.552 127.881 27.99 128.049 28.278C128.301 28.71 128.427 29.664 128.427 31.14C128.427 32.616 128.301 33.576 128.049 34.02C127.881 34.308 127.425 34.746 126.681 35.334ZM132.506 28.188V32.166C132.506 32.73 132.698 33.246 133.082 33.714C133.466 34.182 133.994 34.554 134.666 34.83L132.686 36.216C131.966 35.88 131.36 35.418 130.868 34.83C130.376 34.23 130.13 33.6 130.13 32.94V28.188H129.23V26.838L130.13 26.622C130.106 26.034 130.034 25.572 129.914 25.236C129.794 24.888 129.566 24.552 129.23 24.228L131.21 22.842C132.074 23.526 132.506 24.498 132.506 25.758V26.298H134.522V28.188H132.506ZM138.658 36H136.282V26.172C136.282 25.56 136.21 25.092 136.066 24.768C135.922 24.444 135.694 24.15 135.382 23.886L137.362 22.5C138.226 23.184 138.658 24.15 138.658 25.398V27.072C139.402 26.412 139.942 26.082 140.278 26.082C140.614 26.082 141.148 26.418 141.88 27.09C142.624 27.75 142.996 28.404 142.996 29.052V32.526C142.996 33.138 143.068 33.612 143.212 33.948C143.356 34.284 143.584 34.578 143.896 34.83L141.916 36.216C141.052 35.532 140.62 34.56 140.62 33.3V29.304C140.62 29.1 140.512 28.89 140.296 28.674C140.08 28.446 139.876 28.332 139.684 28.332C139.504 28.332 139.162 28.584 138.658 29.088V36ZM151.437 31.122V31.77H147.081C147.081 32.49 147.171 33.06 147.351 33.48C147.411 33.624 147.519 33.774 147.675 33.93C147.831 34.074 147.993 34.146 148.161 34.146C148.329 34.146 148.539 34.002 148.791 33.714C149.043 33.426 149.241 33.078 149.385 32.67L151.239 33.984C150.915 34.584 150.417 35.106 149.745 35.55C149.085 35.994 148.551 36.216 148.143 36.216C147.735 36.216 147.141 35.898 146.361 35.262C145.593 34.626 145.125 34.134 144.957 33.786C144.789 33.426 144.705 32.55 144.705 31.158C144.705 29.754 144.789 28.878 144.957 28.53C145.125 28.17 145.593 27.672 146.361 27.036C147.141 26.4 147.711 26.082 148.071 26.082C148.431 26.082 148.995 26.4 149.763 27.036C150.543 27.672 151.017 28.17 151.185 28.53C151.353 28.878 151.437 29.742 151.437 31.122ZM148.935 28.872C148.851 28.704 148.713 28.542 148.521 28.386C148.341 28.23 148.167 28.152 147.999 28.152C147.843 28.152 147.663 28.314 147.459 28.638C147.255 28.95 147.129 29.424 147.081 30.06H149.133C149.097 29.424 149.031 29.028 148.935 28.872ZM155.709 36H153.333V29.79C153.333 29.178 153.255 28.704 153.099 28.368C152.955 28.02 152.733 27.72 152.433 27.468L154.413 26.082C154.845 26.442 155.175 26.862 155.403 27.342C156.291 26.502 156.915 26.082 157.275 26.082C157.515 26.082 157.881 26.304 158.373 26.748C158.865 27.192 159.153 27.678 159.237 28.206L157.311 29.592C157.299 29.304 157.227 29.022 157.095 28.746C156.975 28.47 156.867 28.332 156.771 28.332C156.567 28.332 156.213 28.584 155.709 29.088V36ZM163.824 28.89V27.54L164.724 27.324C164.724 25.98 164.79 25.158 164.922 24.858C165.054 24.558 165.51 24.09 166.29 23.454C167.07 22.818 167.64 22.5 168 22.5C168.372 22.5 168.834 22.674 169.386 23.022C169.938 23.358 170.352 23.748 170.628 24.192L168.864 25.38C168.528 24.84 168.24 24.57 168 24.57C167.88 24.57 167.742 24.648 167.586 24.804C167.43 24.96 167.31 25.122 167.226 25.29C167.142 25.458 167.1 26.028 167.1 27H169.656V28.89H167.1V36H164.724V28.89H163.824ZM170.532 26.298H172.908V32.526C172.908 33.138 172.98 33.612 173.124 33.948C173.268 34.284 173.496 34.578 173.808 34.83L171.828 36.216C170.964 35.532 170.532 34.56 170.532 33.3V26.298ZM171.756 22.536C171.888 22.536 172.182 22.734 172.638 23.13C173.094 23.514 173.322 23.778 173.322 23.922C173.322 24.054 173.088 24.318 172.62 24.714C172.164 25.11 171.87 25.308 171.738 25.308C171.618 25.308 171.33 25.116 170.874 24.732C170.418 24.336 170.19 24.072 170.19 23.94C170.19 23.796 170.418 23.526 170.874 23.13C171.342 22.734 171.636 22.536 171.756 22.536ZM178.572 29.016C178.488 28.872 178.32 28.722 178.068 28.566C177.816 28.41 177.624 28.332 177.492 28.332C177.36 28.332 177.216 28.41 177.06 28.566C176.916 28.722 176.82 28.866 176.772 28.998C176.676 29.19 176.628 29.79 176.628 30.798C176.628 31.806 176.676 32.4 176.772 32.58C176.82 32.7 176.916 32.844 177.06 33.012C177.216 33.168 177.36 33.246 177.492 33.246C177.624 33.246 177.816 33.168 178.068 33.012C178.332 32.844 178.506 32.694 178.59 32.562C178.674 32.418 178.716 31.83 178.716 30.798C178.716 29.754 178.668 29.16 178.572 29.016ZM181.056 26.298V35.406C181.056 36.942 180.984 37.854 180.84 38.142C180.708 38.442 180.228 38.91 179.4 39.546C178.572 40.182 177.948 40.5 177.528 40.5C177.12 40.5 176.604 40.29 175.98 39.87C175.356 39.462 174.888 38.988 174.576 38.448L176.43 37.17L176.61 37.404C177.054 37.968 177.36 38.25 177.528 38.25C177.708 38.25 177.906 38.172 178.122 38.016C178.35 37.86 178.5 37.692 178.572 37.512C178.656 37.344 178.698 36.612 178.698 35.316L178.752 34.614C177.936 35.202 177.378 35.496 177.078 35.496C176.79 35.496 176.328 35.178 175.692 34.542C175.056 33.906 174.672 33.432 174.54 33.12C174.408 32.808 174.342 32.034 174.342 30.798C174.342 29.562 174.408 28.788 174.54 28.476C174.672 28.152 175.056 27.672 175.692 27.036C176.328 26.4 176.814 26.082 177.15 26.082C177.486 26.082 178.128 26.466 179.076 27.234L179.292 26.298H181.056ZM185.24 36H182.864V26.172C182.864 25.56 182.792 25.092 182.648 24.768C182.504 24.444 182.276 24.15 181.964 23.886L183.944 22.5C184.808 23.184 185.24 24.15 185.24 25.398V27.072C185.984 26.412 186.524 26.082 186.86 26.082C187.196 26.082 187.73 26.418 188.462 27.09C189.206 27.75 189.578 28.404 189.578 29.052V32.526C189.578 33.138 189.65 33.612 189.794 33.948C189.938 34.284 190.166 34.578 190.478 34.83L188.498 36.216C187.634 35.532 187.202 34.56 187.202 33.3V29.304C187.202 29.1 187.094 28.89 186.878 28.674C186.662 28.446 186.458 28.332 186.266 28.332C186.086 28.332 185.744 28.584 185.24 29.088V36ZM194.293 28.188V32.166C194.293 32.73 194.485 33.246 194.869 33.714C195.253 34.182 195.781 34.554 196.453 34.83L194.473 36.216C193.753 35.88 193.147 35.418 192.655 34.83C192.163 34.23 191.917 33.6 191.917 32.94V28.188H191.017V26.838L191.917 26.622C191.893 26.034 191.821 25.572 191.701 25.236C191.581 24.888 191.353 24.552 191.017 24.228L192.997 22.842C193.861 23.526 194.293 24.498 194.293 25.758V26.298H196.309V28.188H194.293ZM204.171 31.122V31.77H199.815C199.815 32.49 199.905 33.06 200.085 33.48C200.145 33.624 200.253 33.774 200.409 33.93C200.565 34.074 200.727 34.146 200.895 34.146C201.063 34.146 201.273 34.002 201.525 33.714C201.777 33.426 201.975 33.078 202.119 32.67L203.973 33.984C203.649 34.584 203.151 35.106 202.479 35.55C201.819 35.994 201.285 36.216 200.877 36.216C200.469 36.216 199.875 35.898 199.095 35.262C198.327 34.626 197.859 34.134 197.691 33.786C197.523 33.426 197.439 32.55 197.439 31.158C197.439 29.754 197.523 28.878 197.691 28.53C197.859 28.17 198.327 27.672 199.095 27.036C199.875 26.4 200.445 26.082 200.805 26.082C201.165 26.082 201.729 26.4 202.497 27.036C203.277 27.672 203.751 28.17 203.919 28.53C204.087 28.878 204.171 29.742 204.171 31.122ZM201.669 28.872C201.585 28.704 201.447 28.542 201.255 28.386C201.075 28.23 200.901 28.152 200.733 28.152C200.577 28.152 200.397 28.314 200.193 28.638C199.989 28.95 199.863 29.424 199.815 30.06H201.867C201.831 29.424 201.765 29.028 201.669 28.872ZM208.443 36H206.067V29.79C206.067 29.178 205.989 28.704 205.833 28.368C205.689 28.02 205.467 27.72 205.167 27.468L207.147 26.082C207.579 26.442 207.909 26.862 208.137 27.342C209.025 26.502 209.649 26.082 210.009 26.082C210.249 26.082 210.615 26.304 211.107 26.748C211.599 27.192 211.887 27.678 211.971 28.206L210.045 29.592C210.033 29.304 209.961 29.022 209.829 28.746C209.709 28.47 209.601 28.332 209.505 28.332C209.301 28.332 208.947 28.584 208.443 29.088V36Z" fill="#0F0F0F"/>
<path fill-rule="evenodd" clip-rule="evenodd" d="M239 0H251H263V12V24H251V12H239V0Z" fill="#31251E"/>
<path fill-rule="evenodd" clip-rule="evenodd" d="M263 37H251V49H239V61H251H263V49V37Z" fill="#31251E"/>
<path fill-rule="evenodd" clip-rule="evenodd" d="M0 0H12H24V12H12V24H0V12V0Z" fill="#31251E"/>
<path fill-rule="evenodd" clip-rule="evenodd" d="M12 37H0V49V61H12H24V49H12V37Z" fill="#31251E"/>
<rect x="3" y="3" width="257" height="55" stroke="#31251E" stroke-width="6"/>
</svg>
